<?xml version="1.0" encoding="UTF-8" standalone="no"?>
<!-- Created with Inkscape (http://www.inkscape.org/) -->

<svg
   width="210mm"
   height="297mm"
   viewBox="0 0 210 297"
   version="1.1"
   id="svg5"
   inkscape:version="1.1.1 (3bf5ae0d25, 2021-09-20)"
   sodipodi:docname="рисунок.svg"
   xmlns:inkscape="http://www.inkscape.org/namespaces/inkscape"
   xmlns:sodipodi="http://sodipodi.sourceforge.net/DTD/sodipodi-0.dtd"
   xmlns="http://www.w3.org/2000/svg"
   xmlns:svg="http://www.w3.org/2000/svg">
  <sodipodi:namedview
     id="namedview7"
     pagecolor="#505050"
     bordercolor="#ffffff"
     borderopacity="1"
     inkscape:pageshadow="0"
     inkscape:pageopacity="0"
     inkscape:pagecheckerboard="1"
     inkscape:document-units="mm"
     showgrid="false"
     inkscape:zoom="0.55945567"
     inkscape:cx="396.81428"
     inkscape:cy="558.57866"
     inkscape:window-width="1280"
     inkscape:window-height="950"
     inkscape:window-x="0"
     inkscape:window-y="0"
     inkscape:window-maximized="1"
     inkscape:current-layer="layer1" />
  <defs
     id="defs2" />
  <g
     inkscape:label="Слой 1"
     inkscape:groupmode="layer"
     id="layer1">
    <path
       style="fill:none;stroke:#ffffff;stroke-width:4.265;stroke-linecap:butt;stroke-linejoin:miter;stroke-opacity:1;fill-opacity:1;stroke-miterlimit:4;stroke-dasharray:none"
       d="m 58.496099,53.685931 c 0,36.033549 0,72.067099 0,108.100649 0,6.30573 0,12.61146 0,18.91719 0,1.84812 0.61133,7.41369 0,8.9797 -0.248904,0.6376 -2.732485,0.29901 -3.244583,0.29901 -4.536839,0 -9.073679,0 -13.610518,0 -1.365774,0 -2.731548,0 -4.097322,0 -0.143947,0 -0.42871,-0.14391 -0.43184,0 -0.03536,1.62544 2.054,3.65717 2.245638,4.42373 0.114702,0.45881 -0.149553,0.97013 0,1.41879 -0.520597,1.2787 1.167646,1.14459 1.418791,1.89172 0.377651,1.12349 -0.566825,0.8401 0.47293,1.87986 0.249256,0.24925 0.733652,0.19146 0.945859,0.47293 0.798189,1.0587 1.053435,2.56847 1.850355,3.61741 0.648256,0.85325 1.75115,1.45318 2.347143,2.34715 1.338551,2.0078 2.215086,3.94208 3.298661,6.11256 0.507068,1.01569 1.814345,1.80281 2.33844,2.81134 0.601086,1.15668 -1.527027,-0.62262 0.467043,1.36314 2.094843,2.08611 4.440629,3.96761 6.620816,6.1478 0.249256,0.24925 0.223674,0.6966 0.47293,0.94586 0.713761,0.71376 1.804728,1.05184 2.36465,1.89171 0.195532,0.2933 0.223673,0.69661 0.472929,0.94587 1.679708,1.6797 4.217337,2.8083 6.148089,4.25636 1.448657,1.0865 -0.775425,-0.30249 0.945859,1.4188 0.817988,0.81798 2.383194,1.33532 3.310511,1.89171 0.845532,0.50732 2.093497,1.76589 2.820086,2.34716 2.46826,1.97461 4.185554,4.75129 5.569225,7.33486 0.157731,0.29452 0.227311,1.36869 0.650856,1.48994 0.02347,0.007 4.420172,-4.91278 4.843576,-5.73961 0.541187,-1.05684 0.496099,-1.87024 1.410044,-2.78418 1.873142,-1.87314 3.017872,-4.09088 4.703062,-6.1131 1.610246,-1.9323 3.571115,-3.3588 4.729297,-5.67516 0.70055,-1.4011 1.367785,-3.3783 2.301608,-4.61344 2.769806,-3.66353 6.047466,-6.87861 8.985666,-10.40446 1.06134,-1.27359 1.66714,-3.08593 2.83758,-4.25636 1.25403,-1.25403 2.89066,-1.8133 4.25637,-2.83758 2.30679,-1.7301 4.32358,-3.95208 6.62102,-5.67516 3.03736,-2.27802 7.74704,-6.364 9.31355,-9.75164 0.12042,-0.26042 0.73782,-0.54685 0.80445,-0.80445 0.0287,-0.11106 -0.22942,0 -0.34413,0 -1.06845,0 -2.13691,0 -3.20536,0 -1.57643,0 -3.15286,0 -4.7293,0 -7.0786,0 -14.28552,-0.40161 -21.28184,0.47293 -0.87999,0.11 -8.317168,0.10001 -8.433997,-0.40594 -0.662199,-2.86778 0,-9.85575 0,-13.17541 0,-8.51274 0,-17.02548 0,-25.53822 0,-25.38057 0,-50.761144 0,-76.141718 0,-1.877922 0.152937,-17.535384 -0.398889,-17.852657 -1.319366,-0.758568 -6.170371,0 -7.527046,0 -3.82324,0 -15.283952,-0.735462 -17.858068,0 -0.546523,0.156149 -0.891053,0.734764 -1.418791,0.945859 -0.05472,0.02188 -2.989186,0.47293 -3.298674,0.47293 -0.854512,0 -2.490809,0.385458 -3.263114,0 -0.838952,-0.418722 -1.634755,-1.934785 -2.423562,-1.427883 -2.965958,1.905977 2.916782,3.44342 3.299108,3.634582 1.264224,0.632113 2.773928,1.38947 4.132246,1.850342 1.655493,0.561702 8.902838,0.134398 10.246826,0 0.776282,-0.07763 12.62494,-3.217452 12.695213,-1.529069 0.04332,1.040833 -1.470109,1.479486 -2.261052,2.157439 -2.179778,1.868379 -0.935109,1.649878 -4.256371,3.310508 -1.699831,0.849916 -3.888271,1.125911 -5.675159,1.891721 -2.097897,0.899099 -3.797508,2.058741 -5.675158,3.310509 -0.586598,0.391065 -1.851018,0.242033 -1.891718,0.945859 -0.05581,0.965015 4.159578,2.109062 5.163518,2.277406 3.060348,0.513165 6.206149,0 9.309222,0 2.755093,0 5.510183,0 8.265276,0 0.138843,0 -0.277686,0 -0.416528,0 -1.085356,0 -2.172915,-0.06912 -3.256069,0 -2.185566,0.139465 -4.393107,0.193813 -6.540224,0.625121 -9.512861,1.910929 -1.147707,1.554488 -9.6832,2.851277 -3.514228,0.533913 -2.711289,-0.550797 -5.695193,0.945859 -0.558321,0.280043 -1.301012,-0.249002 -1.873851,0 -0.291351,0.126645 0.536448,0.393327 0.852422,0.426257 3.187218,0.332142 6.516332,1.299509 9.708747,1.483619 5.7907,0.33396 11.700227,0 17.5021,0 2.133444,0 4.635699,-0.347141 6.685881,0.472929 2.457205,0.982885 -5.06112,1.591996 -7.662336,2.079448 -9.230114,1.729663 -18.402755,4.61949 -27.678438,5.990079 -1.471136,0.217377 -2.771849,-0.302289 -2.825716,0 -0.06601,0.370438 3.311962,1.01142 5.163781,1.416452 0.788215,0.157644 1.576432,0.315286 2.36465,0.47293 0.788215,0 1.589145,-0.141002 2.364647,0 0.980943,0.178353 1.864299,0.729575 2.837582,0.945859 1.846644,0.410366 4.2594,0 6.148089,0 0.630573,0 1.782474,-0.621038 1.891718,0 0.06893,0.391866 -17.182942,3.963575 -18.83314,4.33832 -0.461187,0.10473 -0.945861,0 -1.418791,0 -0.147463,0 -0.579596,-0.05404 -0.442388,0 4.560771,1.796243 18.8607,0.785714 24.673438,0.785714 0.328152,0 3.384994,-0.246623 4.157852,0 1.979661,0.631717 -3.327201,2.670816 -5.325573,3.240583 -5.010552,1.428588 -10.065284,2.171229 -15.011915,3.407885 -1.115904,0.27898 -2.677163,-0.13828 -3.783441,0 -4.085447,0.51068 -0.752565,0.47293 -2.358673,0.47293 -2.688233,0 5.30316,0.89051 7.938463,1.42133 4.31842,0.86986 8.596248,1.88826 12.952806,2.53197 0.779751,0.11521 1.591739,-0.15458 2.36465,0 0.304353,0.0609 3.736359,0.50828 3.736359,0.91059 0,0.91029 -4.579755,0.69845 -6.571369,0.9988 -6.791815,1.02422 -13.387491,3.11054 -20.136731,4.3893 -1.029097,0.19499 -2.05654,0.41001 -3.096731,0.53273 -0.618837,0.073 -1.246254,0 -1.869379,0 -0.150207,0 -0.584914,-0.0673 -0.450617,0 1.753925,0.8786 5.003503,0.73977 6.314614,0.97916 3.595566,0.65649 3.244758,1.18425 6.534711,2.01087 4.088093,1.02715 8.649528,0.48303 12.829725,0.48303 0.788218,0 1.576433,0 2.36465,0 0.315286,0 0.788617,-0.27328 0.945859,0 1.042694,1.81215 -5.376931,1.05394 -9.603414,1.31935 -4.768779,0.29947 -3.85517,0.7392 -8.222586,1.12302 -1.256303,0.11041 -2.522291,0 -3.783439,0 -0.157644,0 -0.579649,-0.11603 -0.472929,0 1.227855,1.33498 3.573785,0.62339 5.354809,0.96653 3.419666,0.65884 6.771688,1.68036 10.256639,2.09945 3.193669,0.38406 6.707347,0 9.93153,0 0.142346,0 -0.289047,-0.0349 -0.427035,0 -1.765517,0.4472 -3.469637,1.1667 -5.269831,1.44301 -3.014374,0.46266 -6.105948,-0.20056 -9.149019,0 -5.233085,0.34489 -2.51312,0.46221 -6.820304,1.53901 -0.803323,0.20083 -1.993884,0 -2.825544,0 -0.472929,0 -1.839812,-0.21541 -1.418788,0 1.822992,0.93271 1.316942,0.07 3.680621,0.45236 5.927966,0.95905 10.571551,2.63922 16.767133,2.63922 0.384537,0 5.201374,-0.0227 5.202229,0 0.07391,1.96183 -3.65905,1.57626 -5.610357,1.79227 -1.682213,0.18621 -3.357028,0.45824 -5.046414,0.56069 -3.480115,0.21106 -10.10652,-1.02319 -13.249341,0.47293 -0.128013,0.0609 0.283554,0 0.425331,0 0.756483,0 1.512967,0 2.269453,0 1.132395,0 2.264794,0 3.397192,0 5.484675,0 10.969352,0 16.45403,0 0.290443,0 -0.582547,-0.031 -0.871332,0 -1.096692,0.11778 -2.177491,0.38542 -3.278843,0.4457 -8.407136,0.46013 -1.377664,-0.89146 -10.806957,1.18928 -2.075444,0.45798 -5.478798,2.04392 -7.733633,2.04392 -0.138332,0 0.276664,0 0.414997,0 1.57572,0 3.161659,-0.17916 4.727162,0 3.010061,0.34448 5.716984,1.41712 8.618386,2.146 7.949457,1.99703 -2.335202,-0.62567 4.256371,0.47293 0.797219,0.13287 2.833044,0.35383 2.247167,0.91057 -3.818374,3.62847 -11.592266,2.32938 -16.153831,2.32938 -0.809855,0 -1.61971,0 -2.429568,0 -0.6286,0 -2.429968,-0.31468 -1.885802,0 2.894595,1.67388 10.839019,2.15892 14.475021,2.94114 1.185788,0.25511 2.302975,0.79615 3.498625,1.00009 1.55399,0.26506 3.152867,0 4.7293,0 0.873014,0 2.395058,0.1424 2.156243,0.28685 -7.870275,4.76026 -18.344317,4.30583 -27.084015,5.5234 -8.404288,1.17084 -2.623415,1.10167 -5.845407,1.10167 -0.291637,0 0.583274,0 0.874908,0 2.771767,0 5.543534,0 8.315301,0 5.864833,0 11.373469,1.36092 17.183486,1.68548 1.765665,0.0986 3.536834,0 5.30525,0 0.315286,0 0.789853,-0.27398 0.945859,0 0.725406,1.27398 -7.505594,1.36277 -7.791624,1.41463 -4.669163,0.84666 -9.270855,2.65957 -13.995913,2.65957 -0.141182,0 0.282884,-0.0122 0.423539,0 1.548644,0.13376 3.090141,0.36076 4.642647,0.4376 11.728055,0 -2.505411,-0.19856 7.675615,0.49827 2.124858,0.14544 11.640391,-0.72328 13.26184,0 0.08891,0.0397 -1.021284,0.78381 -1.821175,0.87532 -9.990706,1.14285 5.396929,-0.21193 -8.975132,1.00087 -11.219085,0.94674 -5.259443,0.004 -14.12422,1.91496 -2.915256,0.62835 -1.733817,0.50188 -4.343225,0.50188 -0.630574,0 -1.826469,-0.62719 -1.891721,0 -0.09988,0.96003 10.548416,2.81493 12.01552,3.02226 2.577468,0.36424 5.641523,0 8.268309,0 0.371096,0 4.660749,-0.44646 4.697372,0.44098 0.01159,0.28072 -4.214595,2.68426 -5.826471,3.37996 -5.484522,2.36715 -11.775456,3.36379 -17.628677,3.94664 -1.674341,0.16673 -3.079004,0.94586 -4.729297,0.94586 -0.291648,0 0.58329,0 0.874937,0 1.569889,0 3.142366,0.0901 4.709671,0 9.879539,-0.56781 0.209285,-0.38113 10.106855,-1.68597 2.535788,-0.3343 5.11546,0 7.67319,0 1.493773,0 3.117117,-0.60853 4.481319,0 0.1129,0.0504 -0.833083,0.44095 -3.652854,0.92058 -5.481737,0.93241 -10.717593,1.06259 -16.262307,1.06259 -0.06209,0 -2.964847,0 -2.902757,0 5.262769,0 10.52554,0 15.788309,0 0.484032,0 4.173969,-0.46856 4.717465,0 0.155372,0.13395 -0.291118,0.28912 -0.435176,0.43517 -0.764042,0.77464 -1.389747,1.71454 -2.289109,2.32689 -4.642704,3.16112 -10.773042,4.1572 -16.164655,5.11278 -11.521593,2.04203 -0.244993,-0.48662 -4.551169,0.98154 -0.284321,0.0969 -1.201571,0 -0.901176,0 4.040777,0 -7.235301,-0.0247 7.075273,0.53051 4.266666,0.16555 8.539755,0 12.809633,0 2.65077,0 5.557112,-0.25027 5.59454,0.3941 0.130704,2.25034 -9.398831,3.70863 -9.89158,3.76194 -1.666621,0.1803 -3.352691,0 -5.029036,0 -1.237525,0 -2.47505,0 -3.712575,0 -0.788218,0 -1.576435,0 -2.36465,0 -0.147463,0 -0.589854,0 -0.442391,0 4.113853,0 -6.619798,-0.025 9.874374,1.25301 2.279745,0.17665 4.573159,0 6.859736,0 0.03343,0 13.53849,-0.43768 14.539335,0 0.186447,0.0815 -0.249261,0.3415 -0.431681,0.43168 -1.048742,0.51847 -2.086554,1.12132 -3.228043,1.37758 -1.814738,0.40739 -3.708395,0.31957 -5.548151,0.5926 -2.315031,0.34356 -4.579702,1.01753 -6.907911,1.25593 -2.96472,0.30359 -5.960446,0 -8.940668,0 -6.774717,0 -13.549434,0 -20.324154,0 -2.360281,0 -4.283932,1.41285 -6.539486,1.41285 -0.498854,0 -2.159799,-0.063 -1.713103,0.92351 0.246425,0.54424 1.194853,0 1.792279,0 7.423817,0 14.847636,0 22.271453,0 17.811414,0 35.622831,0 53.434241,0 0.80848,0 12.29215,-2.74092 -7.92077,1.22147 -2.62287,0.51417 -5.1581,1.41625 -7.77433,1.96319 -6.103635,1.27601 -12.3515,1.96178 -18.469497,3.11792 -6.437284,1.21648 -12.720815,3.38668 -19.151209,4.5592 -1.116859,0.16098 -2.233718,0.32196 -3.350574,0.48294 -0.637241,0.31863 -1.220754,0.78222 -1.911726,0.95588 -1.384467,0.34794 -2.848271,0.23825 -4.256368,0.47293 -1.012047,0.16867 -1.688423,0.24252 -2.83758,0.47293 -0.152632,0.0306 -0.600318,-0.0804 -0.467013,0 3.421266,2.06333 9.926704,1.36412 13.372192,1.36412 6.415133,0 12.835115,0.24944 19.245398,0 6.655188,-0.25898 4.580352,-0.3335 9.84164,-1.65973 0.552762,-0.13934 2.28021,0 1.710158,0 -4.123553,0 0.542017,-0.0713 -10.018644,2.30692 -0.965065,0.21733 -21.795171,4.40052 -22.445842,4.52098 -2.855452,0.52859 -5.758315,0.79948 -8.595958,1.41656 -0.892021,0.19398 -1.70634,0.65054 -2.546905,1.0066 -0.324583,0.13749 -1.079535,0.14675 -0.945862,0.47293 0.469347,1.14523 6.02057,0.44002 6.912128,0.44002 6.930157,0 13.860315,0 20.790472,0 1.710637,0 3.421274,0 5.131913,0 0.348618,0 1.277033,-0.3866 0.93717,-0.46424 -0.284445,-0.065 -0.511119,0.28534 -0.782915,0.39144 -1.284391,0.5014 -2.580195,0.97382 -3.881522,1.42947 -3.35683,1.17537 -8.703373,3.35303 -12.260212,3.35303 -2.391227,0 4.782449,0 7.173674,0 3.677243,0 7.369805,-0.3353 11.031731,0 0.202059,0.0185 -0.237361,0.36797 -0.430411,0.43044 -2.944551,0.9528 -5.923579,1.80009 -8.915006,2.59355 -1.728637,0.45851 -3.472915,0.87397 -5.238223,1.1605 -1.951448,0.31674 -2.785311,-0.42752 -2.857527,0 -0.129272,0.76531 9.235578,2.7322 10.151684,2.86307 0.332285,0.0475 1.148721,0.20111 0.908103,0.43515 -0.485203,0.47193 -1.210805,0.6054 -1.816206,0.9081 -0.788217,0.63057 -1.642488,1.18646 -2.36465,1.89172 -0.315571,0.30818 0.914964,-0.16686 1.323274,0 0.07055,0.0288 1.562373,0.91413 1.852002,1.3791 1.152517,1.85026 -1.085091,2.79404 1.369083,5.24821"
       id="path42" />
  </g>
</svg>
