<svg width="188" height="166" viewBox="0 0 188 166" fill="none" xmlns="http://www.w3.org/2000/svg">
<path d="M43.4262 140.111L11.0605 77.6227C6.99187 68.8798 10.7428 58.5018 19.4794 54.3284L106.494 13.1437C115.224 9.02823 125.554 12.7515 129.687 21.4426L147.107 58.7599L152.588 71.6916" fill="#BF895A"/>
<path d="M153.97 163.108L58.39 153.038C48.8326 152.031 41.9272 143.43 42.9668 133.827L48.9807 78.282C50.0204 68.6793 58.6116 61.7105 68.169 62.7175L163.749 72.7879C173.306 73.7949 180.212 82.3964 179.172 91.9991L173.158 147.544C172.118 157.147 163.527 164.115 153.97 163.108Z" fill="#212121"/>
<path d="M153.97 163.108L58.39 153.038C48.8326 152.031 41.9272 143.43 42.9668 133.827L48.9807 78.282C50.0204 68.6793 58.6116 61.7105 68.169 62.7175L163.749 72.7879C173.306 73.7949 180.212 82.3964 179.172 91.9991L173.158 147.544C172.118 157.147 163.527 164.115 153.97 163.108Z" stroke="#D9D5CC" stroke-miterlimit="10" stroke-linecap="round" stroke-linejoin="round"/>
<path d="M47.0672 146.726L47.0151 146.662" stroke="#303030" stroke-width="0.5" stroke-miterlimit="10" stroke-linecap="round" stroke-linejoin="round"/>
<path d="M43.4262 140.111L11.0605 77.6227C6.99187 68.8798 10.7428 58.5018 19.4794 54.3284L106.494 13.1437C115.224 9.02823 125.554 12.7515 129.687 21.4426L152.588 71.6916" stroke="#D9D5CC" stroke-miterlimit="10" stroke-linecap="round" stroke-linejoin="round"/>
<path d="M21.3012 81.6457C21.3012 81.6457 11.3874 68.1471 22.6588 61.1974L58.1908 44.2961" stroke="#D9D5CC" stroke-miterlimit="10" stroke-linecap="round" stroke-linejoin="round"/>
<path d="M66.1334 40.9595L69.8795 38.8382" stroke="#D9D5CC" stroke-miterlimit="10" stroke-linecap="round" stroke-linejoin="round"/>
<path d="M143.453 70.9418L135.706 54.7496" stroke="#D9D5CC" stroke-miterlimit="10" stroke-linecap="round" stroke-linejoin="round"/>
</svg>
